# xmcd CD database file
#
# Track frame offsets:
#	150
#	26119
#	37201
#	62101
#	90151
#	108873
#	136539
#
# Disc length: 2172 seconds
#
# Revision: 0
# Processed by: cddbd v1.5.2PL0 Copyright (c) Steve Scherf et al.
# Submitted via: CDex 1.75
#
DISCID=51087a07
DTITLE=Baguettes Ensemble - Toho Jazz Sessions typeSPB
DYEAR=2015
DGENRE=Jazz
TTITLE0=The third princess
TTITLE1=Coupled mirror A
TTITLE2=Coupled mirror B
TTITLE3=Waltz for S
TTITLE4=Better bow than break
TTITLE5=Frog's leap
TTITLE6=Memories Doll
EXTD=YEAR: 2015
EXTT0=
EXTT1=
EXTT2=
EXTT3=
EXTT4=
EXTT5=
EXTT6=
PLAYORDER=
